<svg width="52" height="52" viewBox="0 0 52 52" fill="none" xmlns="http://www.w3.org/2000/svg">
<path d="M34.8947 0C25.4471 0 17.7894 7.65767 17.7894 17.1052C17.7894 18.6776 18.0193 20.1938 18.4162 21.6402L0.600736 39.4556C0.21621 39.8402 0 40.3629 0 40.9075V49.9473C0 51.0803 0.918209 51.9999 2.05263 51.9999H11.6316C12.766 51.9999 13.6842 51.0803 13.6842 49.9473V46.5263H18.4737C19.6081 46.5263 20.5263 45.6067 20.5263 44.4736V39.6842H25.3158C26.4502 39.6842 27.3684 38.7646 27.3684 37.6315V32.448C29.6413 33.566 32.1907 34.2105 34.8947 34.2105C44.3423 34.2105 51.9999 26.5528 51.9999 17.1052C51.9999 7.65767 44.3423 0 34.8947 0ZM36.9473 19.1579C34.6798 19.1579 32.8421 17.3201 32.8421 15.0526C32.8421 12.7851 34.6798 10.9474 36.9473 10.9474C39.2148 10.9474 41.0526 12.7851 41.0526 15.0526C41.0526 17.3201 39.2148 19.1579 36.9473 19.1579Z" fill="white"/>
</svg>
