<svg width="298" height="298" viewBox="0 0 298 298" fill="none" xmlns="http://www.w3.org/2000/svg">
<g clip-path="url(#clip0_287_55)">
<path fill-rule="evenodd" clip-rule="evenodd" d="M17.8258 228.542L60.8569 185.508H0V112.489H60.8569L17.8258 69.4577L69.4577 17.8231L112.492 60.8569V0H185.511V60.8569L228.542 17.8231L280.174 69.4577L237.143 112.489H298V185.508H237.143L280.174 228.542L228.542 280.174L185.511 237.143V298H112.492V237.143L69.4577 280.174L17.8258 228.542Z" fill="white"/>
<path d="M108.327 123.239C104.692 121.598 100.41 120.777 95.4809 120.775H71.3813V176.448H84.2624V144.737V131.286H94.7545C98.6232 131.286 101.565 132.121 103.581 133.79C105.597 135.46 106.609 137.854 106.616 140.971C106.616 144.047 105.608 146.42 103.592 148.089C101.576 149.759 98.6339 150.594 94.7653 150.594H86.3124L96.5194 160.801C99.4625 160.435 105.935 159.725 108.327 158.668C111.955 157.053 114.751 154.722 116.715 151.673C118.679 148.624 119.66 145.057 119.658 140.971C119.658 136.835 118.677 133.256 116.715 130.234C114.753 127.212 111.957 124.88 108.327 123.239Z" fill="#3A75ED"/>
<path d="M171.796 146.704C168.266 143.893 163.136 142.488 156.405 142.488H140.971V131.036H173.106V120.775H128.178V176.448H154.584C161.74 176.448 167.281 174.911 171.207 171.836C175.133 168.762 177.095 164.441 177.093 158.872C177.088 153.574 175.322 149.518 171.796 146.704ZM161.417 164.957C159.668 166.258 157.15 166.907 153.863 166.905H140.971V151.953H153.857C160.642 151.953 164.035 154.392 164.037 159.27C164.039 161.761 163.166 163.657 161.417 164.957Z" fill="#3A75ED"/>
<path d="M226.156 120.775H186.867V176.45H199.67L199.592 131.272H215.661L226.156 120.778V120.775Z" fill="#3A75ED"/>
</g>
<defs>
<clipPath id="clip0_287_55">
<rect width="298" height="298" fill="white"/>
</clipPath>
</defs>
</svg>
