<svg width="151" height="151" viewBox="0 0 151 151" fill="none" xmlns="http://www.w3.org/2000/svg">
<g clip-path="url(#clip0_388_2)">
<path fill-rule="evenodd" clip-rule="evenodd" d="M9.03134 115.806L30.8378 93.9993H0V56.9983H30.8378L9.03134 35.1967L35.1967 9.03134L57.0007 30.8378V0H93.9993V30.8378L115.806 9.03134L141.969 35.1943L120.162 56.9983H151V93.9993H120.162L141.969 115.806L115.806 141.969L93.9993 120.162V151H57.0007V120.162L35.1967 141.969L9.03134 115.806Z" fill="#3A75ED"/>
<path d="M54.4343 62.1074C52.548 61.2535 50.3239 60.8265 47.7621 60.8265H35.2476V89.7346H41.9366V73.2736V66.2782H47.3883C49.3968 66.2782 50.9246 66.7123 51.9715 67.5807C53.0184 68.4491 53.545 69.6947 53.5515 71.3173C53.5515 72.9158 53.028 74.1484 51.9811 75.0152C50.9342 75.882 49.4065 76.3154 47.3979 76.3154H43.0028L48.3097 81.6223C49.8391 81.4341 53.2041 81.0675 54.4416 80.5151C56.2228 79.7632 57.7395 78.4976 58.798 76.8798C59.8176 75.2974 60.3274 73.4481 60.3274 71.3317C60.3274 69.1849 59.8176 67.3267 58.798 65.7571C57.7313 64.1403 56.2143 62.8715 54.4343 62.1074Z" fill="white"/>
<path d="M88.0772 60.8265H64.739V89.7346H78.4525C82.1689 89.7346 85.0467 88.9353 87.0858 87.3368C89.1249 85.7383 90.1437 83.4941 90.1421 80.6043C90.1421 77.8512 89.227 75.7445 87.397 74.2843C85.5669 72.8241 82.9022 72.0948 79.4029 72.0964H71.4016V66.1551H82.7728L88.0796 60.8482L88.0772 60.8265ZM78.081 77.0173C81.606 77.0173 83.3686 78.2846 83.3686 80.819C83.3686 82.1119 82.9151 83.0985 82.0057 83.7716C81.0963 84.4446 79.7888 84.7847 78.081 84.7847H71.4016V77.0173H78.081Z" fill="white"/>
<path d="M95.2224 60.8265V89.7394H101.873L101.832 66.2782H110.178L115.627 60.8289V60.8265H95.2224Z" fill="white"/>
<path d="M88.0772 60.8409L82.7583 66.1551H88.0772V60.8409Z" fill="#3A75ED"/>
</g>
<defs>
<clipPath id="clip0_388_2">
<rect width="151" height="151" fill="white"/>
</clipPath>
</defs>
</svg>
