<svg width="151" height="151" viewBox="0 0 151 151" fill="none" xmlns="http://www.w3.org/2000/svg">
<g clip-path="url(#clip0_388_126)">
<path fill-rule="evenodd" clip-rule="evenodd" d="M9.03134 115.806L30.8378 93.9993H0V56.9983H30.8378L9.03134 35.1967L35.1967 9.03134L57.0007 30.8378V0H93.9993V30.8378L115.806 9.03134L141.969 35.1943L120.162 56.9983H151V93.9993H120.162L141.969 115.806L115.806 141.969L93.9993 120.162V151H57.0007V120.162L35.1967 141.969L9.03134 115.806Z" fill="white"/>
<path d="M54.4341 62.1074C52.5477 61.2535 50.3237 60.8265 47.7619 60.8265H35.2473V89.7346H41.9364V73.2736V66.2782H47.388C49.3966 66.2782 50.9243 66.7123 51.9712 67.5807C53.0181 68.4491 53.5448 69.6947 53.5512 71.3173C53.5512 72.9158 53.0278 74.1484 51.9809 75.0152C50.934 75.882 49.4062 76.3154 47.3977 76.3154H43.0026L48.3095 81.6223C49.8388 81.4341 53.2039 81.0675 54.4413 80.5151C56.2225 79.7632 57.7392 78.4976 58.7978 76.8798C59.8174 75.2974 60.3271 73.4481 60.3271 71.3317C60.3271 69.1849 59.8174 67.3267 58.7978 65.7571C57.7311 64.1403 56.214 62.8715 54.4341 62.1074Z" fill="#3A75ED"/>
<path d="M88.0772 60.8265H64.739V89.7346H78.4525C82.1689 89.7346 85.0467 88.9353 87.0858 87.3368C89.1249 85.7383 90.1437 83.4941 90.1421 80.6043C90.1421 77.8512 89.227 75.7445 87.397 74.2843C85.5669 72.8241 82.9022 72.0948 79.4029 72.0964H71.4016V66.1551H82.7728L88.0796 60.8482L88.0772 60.8265ZM78.081 77.0173C81.606 77.0173 83.3686 78.2846 83.3686 80.819C83.3686 82.1119 82.9151 83.0985 82.0057 83.7716C81.0963 84.4446 79.7888 84.7847 78.081 84.7847H71.4016V77.0173H78.081Z" fill="#3A75ED"/>
<path d="M95.2224 60.8265V89.7394H101.873L101.832 66.2782H110.178L115.627 60.8289V60.8265H95.2224Z" fill="#3A75ED"/>
</g>
<defs>
<clipPath id="clip0_388_126">
<rect width="151" height="151" fill="white"/>
</clipPath>
</defs>
</svg>
