<svg width="53" height="53" viewBox="0 0 53 53" fill="none" xmlns="http://www.w3.org/2000/svg">
<path d="M26.5 0C11.8649 0 0 11.8649 0 26.5C0 41.1351 11.8649 53 26.5 53C41.1351 53 53 41.1351 53 26.5C53 11.8649 41.1351 0 26.5 0ZM26.5 4.07692C38.8837 4.07692 48.9231 14.1163 48.9231 26.5C48.9231 38.8837 38.8837 48.9231 26.5 48.9231C14.1163 48.9231 4.07692 38.8837 4.07692 26.5C4.07692 14.1163 14.1163 4.07692 26.5 4.07692ZM24.9712 8.15385L25.4808 12.2308H27.5192L28.0288 8.15385H24.9712ZM38.7527 12.8061L27.774 22.6301C27.363 22.4939 26.933 22.424 26.5 22.4231C24.2484 22.4231 22.4231 24.2484 22.4231 26.5C22.4231 28.7516 24.2484 30.5769 26.5 30.5769C26.7471 30.5761 26.9937 30.5527 27.2366 30.5072L35.486 37.3433L37.3453 35.4859L30.5073 27.2346C30.6301 26.5641 30.5829 25.8735 30.3699 25.226L40.1939 14.2473L38.7527 12.8061ZM8.15385 24.9712V28.0288L12.2308 27.5192V25.4808L8.15385 24.9712ZM44.8462 24.9712L40.7692 25.4808V27.5192L44.8462 28.0288V24.9712ZM25.4808 40.7692L24.9712 44.8462H28.0288L27.5192 40.7692H25.4808Z" fill="white"/>
</svg>
